<?xml version="1.0" encoding="UTF-8" standalone="no"?>
<!DOCTYPE svg PUBLIC "-//W3C//DTD SVG 1.1//EN"
 "http://www.w3.org/Graphics/SVG/1.1/DTD/svg11.dtd">
<!-- Generated by graphviz version 2.43.0 (0)
 -->
<!-- Title: snakemake_dag Pages: 1 -->
<svg width="356pt" height="260pt"
 viewBox="0.00 0.00 356.00 260.00" xmlns="http://www.w3.org/2000/svg" xmlns:xlink="http://www.w3.org/1999/xlink">
<g id="graph0" class="graph" transform="scale(1 1) rotate(0) translate(4 256)">
<title>snakemake_dag</title>
<polygon fill="white" stroke="transparent" points="-4,4 -4,-256 352,-256 352,4 -4,4"/>
<!-- 1 -->
<g id="node1" class="node">
<title>1</title>
<path fill="none" stroke="#56d87b" stroke-width="2" d="M86,-108C86,-108 12,-108 12,-108 6,-108 0,-102 0,-96 0,-96 0,-84 0,-84 0,-78 6,-72 12,-72 12,-72 86,-72 86,-72 92,-72 98,-78 98,-84 98,-84 98,-96 98,-96 98,-102 92,-108 86,-108"/>
<text text-anchor="middle" x="49" y="-87.5" font-family="sans" font-size="10.00">index_alignment</text>
</g>
<!-- 2 -->
<g id="node2" class="node">
<title>2</title>
<path fill="none" stroke="#c6d856" stroke-width="2" d="M205,-180C205,-180 137,-180 137,-180 131,-180 125,-174 125,-168 125,-168 125,-156 125,-156 125,-150 131,-144 137,-144 137,-144 205,-144 205,-144 211,-144 217,-150 217,-156 217,-156 217,-168 217,-168 217,-174 211,-180 205,-180"/>
<text text-anchor="middle" x="171" y="-159.5" font-family="sans" font-size="10.00">mapping_reads</text>
</g>
<!-- 2&#45;&gt;1 -->
<g id="edge1" class="edge">
<title>2&#45;&gt;1</title>
<path fill="none" stroke="grey" stroke-width="2" d="M141.16,-143.88C125.06,-134.64 105,-123.13 87.71,-113.21"/>
<polygon fill="grey" stroke="grey" stroke-width="2" points="89.37,-110.13 78.96,-108.19 85.89,-116.2 89.37,-110.13"/>
</g>
<!-- 4 -->
<g id="node4" class="node">
<title>4</title>
<path fill="none" stroke="#d85656" stroke-width="2" d="M214,-108C214,-108 128,-108 128,-108 122,-108 116,-102 116,-96 116,-96 116,-84 116,-84 116,-78 122,-72 128,-72 128,-72 214,-72 214,-72 220,-72 226,-78 226,-84 226,-84 226,-96 226,-96 226,-102 220,-108 214,-108"/>
<text text-anchor="middle" x="171" y="-87.5" font-family="sans" font-size="10.00">compute_coverage</text>
</g>
<!-- 2&#45;&gt;4 -->
<g id="edge3" class="edge">
<title>2&#45;&gt;4</title>
<path fill="none" stroke="grey" stroke-width="2" d="M171,-143.7C171,-135.98 171,-126.71 171,-118.11"/>
<polygon fill="grey" stroke="grey" stroke-width="2" points="174.5,-118.1 171,-108.1 167.5,-118.1 174.5,-118.1"/>
</g>
<!-- 6 -->
<g id="node6" class="node">
<title>6</title>
<path fill="none" stroke="#56d8c9" stroke-width="2" d="M336,-108C336,-108 256,-108 256,-108 250,-108 244,-102 244,-96 244,-96 244,-84 244,-84 244,-78 250,-72 256,-72 256,-72 336,-72 336,-72 342,-72 348,-78 348,-84 348,-84 348,-96 348,-96 348,-102 342,-108 336,-108"/>
<text text-anchor="middle" x="296" y="-87.5" font-family="sans" font-size="10.00">create_consensus</text>
</g>
<!-- 2&#45;&gt;6 -->
<g id="edge5" class="edge">
<title>2&#45;&gt;6</title>
<path fill="none" stroke="grey" stroke-width="2" d="M201.58,-143.88C218.07,-134.64 238.62,-123.13 256.34,-113.21"/>
<polygon fill="grey" stroke="grey" stroke-width="2" points="258.29,-116.13 265.3,-108.19 254.87,-110.02 258.29,-116.13"/>
</g>
<!-- 3 -->
<g id="node3" class="node">
<title>3</title>
<path fill="none" stroke="#56a2d8" stroke-width="2" d="M209.5,-252C209.5,-252 132.5,-252 132.5,-252 126.5,-252 120.5,-246 120.5,-240 120.5,-240 120.5,-228 120.5,-228 120.5,-222 126.5,-216 132.5,-216 132.5,-216 209.5,-216 209.5,-216 215.5,-216 221.5,-222 221.5,-228 221.5,-228 221.5,-240 221.5,-240 221.5,-246 215.5,-252 209.5,-252"/>
<text text-anchor="middle" x="171" y="-231.5" font-family="sans" font-size="10.00">extract_amplicon</text>
</g>
<!-- 3&#45;&gt;2 -->
<g id="edge2" class="edge">
<title>3&#45;&gt;2</title>
<path fill="none" stroke="grey" stroke-width="2" d="M171,-215.7C171,-207.98 171,-198.71 171,-190.11"/>
<polygon fill="grey" stroke="grey" stroke-width="2" points="174.5,-190.1 171,-180.1 167.5,-190.1 174.5,-190.1"/>
</g>
<!-- 5 -->
<g id="node5" class="node">
<title>5</title>
<path fill="none" stroke="#78d856" stroke-width="2" d="M331.5,-36C331.5,-36 260.5,-36 260.5,-36 254.5,-36 248.5,-30 248.5,-24 248.5,-24 248.5,-12 248.5,-12 248.5,-6 254.5,0 260.5,0 260.5,0 331.5,0 331.5,0 337.5,0 343.5,-6 343.5,-12 343.5,-12 343.5,-24 343.5,-24 343.5,-30 337.5,-36 331.5,-36"/>
<text text-anchor="middle" x="296" y="-15.5" font-family="sans" font-size="10.00">filter_consensus</text>
</g>
<!-- 6&#45;&gt;5 -->
<g id="edge4" class="edge">
<title>6&#45;&gt;5</title>
<path fill="none" stroke="grey" stroke-width="2" d="M296,-71.7C296,-63.98 296,-54.71 296,-46.11"/>
<polygon fill="grey" stroke="grey" stroke-width="2" points="299.5,-46.1 296,-36.1 292.5,-46.1 299.5,-46.1"/>
</g>
</g>
</svg>
