<svg xmlns="http://www.w3.org/2000/svg" xmlns:xlink="http://www.w3.org/1999/xlink" viewBox="0 0 601.4 632.16"><defs><style>.cls-1{fill:url(#linear-gradient);}.cls-2{fill:url(#linear-gradient-2);}.cls-3{fill:url(#linear-gradient-3);}.cls-4{fill:url(#linear-gradient-4);}.cls-22,.cls-5{font-size:16px;}.cls-5{fill:#3c3c3b;}.cls-18,.cls-22,.cls-5{font-family:ArialUnicodeMS, Arial Unicode MS;}.cls-10,.cls-13,.cls-14,.cls-15,.cls-17,.cls-19,.cls-20,.cls-21,.cls-23,.cls-27,.cls-6,.cls-7,.cls-9{fill:none;}.cls-6{stroke:#a48a7b;stroke-miterlimit:8;}.cls-7{stroke:#26231e;}.cls-15,.cls-17,.cls-21,.cls-27,.cls-7,.cls-9{stroke-miterlimit:10;}.cls-8{fill:#26231e;}.cls-9{stroke:#2b2523;stroke-width:1.06px;}.cls-10{stroke:#5281bd;}.cls-10,.cls-13,.cls-14,.cls-19,.cls-20,.cls-23{stroke-linecap:round;stroke-linejoin:round;}.cls-11{fill:#7a6958;}.cls-12{fill:#a48a7b;}.cls-13,.cls-23{stroke:#662483;}.cls-14{stroke:#e30613;}.cls-15,.cls-17,.cls-27{stroke:#007ba6;}.cls-15{stroke-width:1.48px;}.cls-16{fill:#007ba6;}.cls-17{stroke-width:1.3px;}.cls-18{font-size:12px;}.cls-18,.cls-22{fill:#1d1d1b;}.cls-19{stroke:#f39204;}.cls-20{stroke:#9bbc59;}.cls-21{stroke:#575756;stroke-width:1.5px;}.cls-23{stroke-width:2px;}.cls-24{mask:url(#mask);}.cls-25{fill:#fff;}.cls-26{mask:url(#mask-2);}.cls-28{mask:url(#mask-3);}.cls-29{mask:url(#mask-4);}</style><linearGradient id="linear-gradient" x1="239.7" y1="375.76" x2="263.22" y2="375.76" gradientUnits="userSpaceOnUse"><stop offset="0" stop-color="#1d1d1b"/><stop offset="0.45" stop-color="#f6f6f6"/><stop offset="0.55" stop-color="#f6f6f6"/><stop offset="1" stop-color="#1d1d1b"/></linearGradient><linearGradient id="linear-gradient-2" x1="391.19" y1="370.56" x2="414.72" y2="370.56" xlink:href="#linear-gradient"/><linearGradient id="linear-gradient-3" x1="238.3" y1="51.6" x2="261.82" y2="51.6" xlink:href="#linear-gradient"/><linearGradient id="linear-gradient-4" x1="388.7" y1="45.14" x2="412.23" y2="45.14" xlink:href="#linear-gradient"/><mask id="mask" x="239.7" y="361.54" width="23.53" height="28.44" maskUnits="userSpaceOnUse"><rect class="cls-1" x="239.7" y="361.54" width="23.53" height="28.44"/></mask><mask id="mask-2" x="391.19" y="356.34" width="23.53" height="28.44" maskUnits="userSpaceOnUse"><rect class="cls-2" x="391.19" y="356.34" width="23.53" height="28.44"/></mask><mask id="mask-3" x="238.3" y="37.38" width="23.53" height="28.44" maskUnits="userSpaceOnUse"><rect class="cls-3" x="238.3" y="37.38" width="23.53" height="28.44"/></mask><mask id="mask-4" x="388.7" y="30.92" width="23.53" height="28.44" maskUnits="userSpaceOnUse"><rect class="cls-4" x="388.7" y="30.92" width="23.53" height="28.44"/></mask></defs><title>Asset 1</title><g id="Layer_2" data-name="Layer 2"><g id="Layer_1-2" data-name="Layer 1"><text class="cls-5" transform="translate(305.77 352.56)">gDNA</text><path class="cls-6" d="M430.84,391.93c1.71,0,3.1.28,3.1.63v17.5c0,.35,1.39.63,3.1.63-1.71,0-3.1.28-3.1.63v17.5c0,.35-1.39.63-3.1.63"/><text class="cls-5" transform="translate(445.48 396.63)">Barcoded universal<tspan x="0" y="19.2">primers with rapid</tspan><tspan x="0" y="38.4">attachment chemistry</tspan></text><text class="cls-5" transform="translate(300.67 618.89)">Loading</text><line class="cls-7" x1="327.2" y1="564.67" x2="327.2" y2="595.36"/><path class="cls-8" d="M327.2,601.39a30.22,30.22,0,0,0-4.76-8.55l4.76,1.72,4.75-1.72A30.19,30.19,0,0,0,327.2,601.39Z"/><text class="cls-5" transform="translate(41.06 494.01)">Attachment of rapid 1D<tspan x="15.09" y="19.2">sequencing adapters</tspan></text><path class="cls-9" d="M327.2,506.77a11.72,11.72,0,0,1,11.72-11.72"/><line class="cls-7" x1="327.2" y1="482.06" x2="327.2" y2="512.74"/><path class="cls-8" d="M327.2,518.78a30.22,30.22,0,0,0-4.76-8.55L327.2,512l4.75-1.72A30.2,30.2,0,0,0,327.2,518.78Z"/><polyline class="cls-10" points="370.3 511.49 374.49 508.22 405.83 508.22"/><polyline class="cls-10" points="344.77 489.35 364.55 502.82 405.83 502.82"/><path class="cls-11" d="M363,498.48c.12-6.19-4.61-6.4-5.78-5.3s-6.46,6.87-3.39,8.38,6.7,1.59,6.38.64C358.29,496.41,363,501.57,363,498.48Z"/><circle class="cls-12" cx="408.65" cy="502.93" r="2.83"/><path class="cls-9" d="M327.2,419.75A11.72,11.72,0,0,1,338.92,408"/><line class="cls-7" x1="327.2" y1="395.53" x2="327.2" y2="426.22"/><path class="cls-8" d="M327.2,432.25a30.22,30.22,0,0,0-4.76-8.55l4.76,1.72L332,423.7A30.19,30.19,0,0,0,327.2,432.25Z"/><text class="cls-5" transform="translate(95.33 399.84)">PCR with tailed<tspan x="38.25" y="19.2">primers at</tspan><tspan x="47.13" y="38.4">low conc</tspan></text><line class="cls-13" x1="284.24" y1="406.01" x2="314.86" y2="406.01"/><line class="cls-13" x1="284.24" y1="419.01" x2="314.86" y2="419.01"/><line class="cls-14" x1="253.63" y1="406.01" x2="284.24" y2="406.01"/><line class="cls-14" x1="253.63" y1="419.01" x2="284.24" y2="419.01"/><line class="cls-15" x1="21.34" y1="378.22" x2="21.34" y2="455.55"/><path class="cls-16" d="M21.34,464.46a44.65,44.65,0,0,0-7-12.63l7,2.54,7-2.54A44.62,44.62,0,0,0,21.34,464.46Z"/><line class="cls-17" x1="21.34" y1="478.35" x2="21.34" y2="606.87"/><path class="cls-16" d="M21.34,614.71a39.29,39.29,0,0,0-6.18-11.11l6.18,2.24,6.18-2.24A39.25,39.25,0,0,0,21.34,614.71Z"/><text class="cls-5" transform="translate(29.85 551.67)">10 min</text><text class="cls-5" transform="translate(29.85 416.89)">User-<tspan x="0" y="19.2">defined</tspan></text><line class="cls-14" x1="378.23" y1="406.01" x2="408.85" y2="406.01"/><line class="cls-14" x1="378.23" y1="419.01" x2="408.84" y2="419.01"/><text class="cls-18" transform="translate(412.66 409.53)">F</text><text class="cls-18" transform="translate(412.66 422.53)">R</text><line class="cls-19" x1="347.61" y1="406.01" x2="378.23" y2="406.01"/><line class="cls-19" x1="347.61" y1="419.01" x2="378.22" y2="419.01"/><circle class="cls-12" cx="347.61" cy="406.01" r="2.83"/><circle class="cls-12" cx="347.61" cy="419.01" r="2.83"/><line class="cls-20" x1="261.5" y1="454.25" x2="392.13" y2="454.25"/><line class="cls-20" x1="261.5" y1="460.06" x2="392.13" y2="460.06"/><line class="cls-13" x1="230.88" y1="454.25" x2="261.5" y2="454.25"/><line class="cls-13" x1="261.5" y1="460.06" x2="230.88" y2="460.06"/><line class="cls-13" x1="422.75" y1="460.06" x2="392.13" y2="460.06"/><line class="cls-13" x1="392.14" y1="454.25" x2="422.75" y2="454.25"/><line class="cls-14" x1="453.53" y1="460.06" x2="422.75" y2="460.06"/><line class="cls-14" x1="453.37" y1="454.25" x2="422.75" y2="454.25"/><line class="cls-19" x1="484.14" y1="460.06" x2="453.37" y2="460.06"/><line class="cls-19" x1="483.98" y1="454.25" x2="453.37" y2="454.25"/><circle class="cls-12" cx="484.14" cy="460.06" r="2.83"/><line class="cls-14" x1="200.27" y1="454.25" x2="230.88" y2="454.25"/><line class="cls-14" x1="200.27" y1="460.06" x2="230.88" y2="460.06"/><line class="cls-19" x1="169.66" y1="454.25" x2="200.27" y2="454.25"/><line class="cls-19" x1="169.66" y1="460.06" x2="200.27" y2="460.06"/><circle class="cls-12" cx="169.66" cy="454.25" r="2.83"/><line class="cls-20" x1="261.5" y1="537.96" x2="392.13" y2="537.96"/><line class="cls-20" x1="261.5" y1="543.76" x2="392.13" y2="543.76"/><line class="cls-13" x1="230.88" y1="537.96" x2="261.5" y2="537.96"/><line class="cls-13" x1="261.5" y1="543.76" x2="230.88" y2="543.76"/><line class="cls-13" x1="422.75" y1="543.76" x2="392.13" y2="543.76"/><line class="cls-13" x1="392.14" y1="537.95" x2="422.75" y2="537.95"/><line class="cls-14" x1="200.27" y1="537.96" x2="230.88" y2="537.96"/><line class="cls-14" x1="200.27" y1="543.77" x2="230.88" y2="543.77"/><line class="cls-19" x1="169.66" y1="537.96" x2="200.27" y2="537.96"/><line class="cls-19" x1="169.66" y1="543.77" x2="200.27" y2="543.77"/><polyline class="cls-10" points="134.74 547.03 138.92 543.76 170.27 543.76"/><polyline class="cls-10" points="109.21 524.49 128.98 537.96 170.27 537.96"/><path class="cls-11" d="M127.47,533.62c.12-6.19-4.61-6.4-5.78-5.3s-6.46,6.87-3.39,8.38,6.7,1.59,6.38.64C122.73,531.55,127.41,536.7,127.47,533.62Z"/><line class="cls-14" x1="453.53" y1="543.76" x2="422.75" y2="543.76"/><line class="cls-14" x1="453.37" y1="537.96" x2="422.75" y2="537.96"/><line class="cls-19" x1="484.14" y1="543.76" x2="453.37" y2="543.76"/><line class="cls-19" x1="484.14" y1="537.96" x2="453.53" y2="537.96"/><polyline class="cls-10" points="519.67 534.68 515.49 537.96 484.14 537.96"/><polyline class="cls-10" points="545.2 557.23 525.43 543.76 484.14 543.76"/><path class="cls-11" d="M526.94,548.1c-.12,6.19,4.61,6.4,5.78,5.3s6.46-6.87,3.39-8.38-6.7-1.59-6.38-.64C531.68,550.17,527,545,526.94,548.1Z"/><path class="cls-21" d="M2.81,326.16H599.65a1,1,0,0,1,1,1V630.41a1,1,0,0,1-1,1H1.81a1,1,0,0,1-1-1V328.16a2,2,0,0,1,2-2Z"/><text class="cls-22" transform="translate(21.34 353.1)">b) </text><path class="cls-20" d="M251.46,375.39c9.44-4.23,18.87-8.46,27.42-8.16s15.77,9.25,23.84,9.94,19.81-4.2,24.31-5.83c9.7-3.88,19-7.94,27.58-7.41s15.56,9.68,23.61,10.59,20.22-4,24.73-5.12"/><path class="cls-20" d="M252.55,379c9.44-4.23,18.87-8.46,27.42-8.16s15.77,9.25,23.84,9.94,20-4.39,24.33-5.88c9.73-3.88,17.93-7.48,26.46-6.95s15.55,9.68,23.61,10.59,20.22-4,24.73-5.12"/><path class="cls-13" d="M403,378.39"/><path class="cls-23" d="M302.72,377.17a24.15,24.15,0,0,0,5-.15"/><path class="cls-23" d="M349.59,368.12a28.92,28.92,0,0,1,5-.14"/><g class="cls-24"><rect class="cls-25" x="239.7" y="361.54" width="23.53" height="28.44"/></g><g class="cls-26"><rect class="cls-25" x="391.19" y="356.34" width="23.53" height="28.44"/></g><path class="cls-6" d="M430.78,65.14c1.71,0,3.1.28,3.1.63v17.5c0,.35,1.39.63,3.1.63-1.71,0-3.1.28-3.1.63V102c0,.35-1.39.63-3.1.63"/><text class="cls-5" transform="translate(445.42 71.22)">Universal primers<tspan x="0" y="19.2">with rapid attachment</tspan><tspan x="0" y="38.4">chemistry</tspan></text><path class="cls-21" d="M2.78.75H599.57a1,1,0,0,1,1,1V305a1,1,0,0,1-1,1H1.77a1,1,0,0,1-1-1V2.78a2,2,0,0,1,2-2Z"/><text class="cls-5" transform="translate(304.67 25.14)">gDNA</text><line class="cls-27" x1="21.28" y1="52.81" x2="21.28" y2="133.01"/><path class="cls-16" d="M21.28,139a30.22,30.22,0,0,0-4.76-8.55l4.76,1.72L26,130.5A30.2,30.2,0,0,0,21.28,139Z"/><line class="cls-27" x1="21.28" y1="154.54" x2="21.28" y2="284.86"/><path class="cls-16" d="M21.28,290.9a30.22,30.22,0,0,0-4.76-8.55l4.76,1.72L26,282.35A30.2,30.2,0,0,0,21.28,290.9Z"/><text class="cls-5" transform="translate(29.79 227.86)">10 min</text><text class="cls-5" transform="translate(298.73 293.48)">Loading</text><line class="cls-7" x1="325.26" y1="239.26" x2="325.26" y2="269.94"/><path class="cls-8" d="M325.26,276a30.22,30.22,0,0,0-4.76-8.55l4.76,1.72,4.75-1.72A30.19,30.19,0,0,0,325.26,276Z"/><text class="cls-5" transform="translate(41 168.59)">Attachment of rapid 1D<tspan x="15.09" y="19.2">sequencing adapters</tspan></text><path class="cls-9" d="M325.26,181.36A11.72,11.72,0,0,1,337,169.64"/><line class="cls-7" x1="325.26" y1="156.64" x2="325.26" y2="187.33"/><path class="cls-8" d="M325.26,193.37a30.22,30.22,0,0,0-4.76-8.55l4.76,1.72,4.75-1.72A30.2,30.2,0,0,0,325.26,193.37Z"/><polyline class="cls-10" points="370.24 186.07 374.42 182.8 405.77 182.8"/><polyline class="cls-10" points="344.71 163.94 364.49 177.41 405.77 177.41"/><path class="cls-11" d="M363,173.07c.12-6.19-4.61-6.4-5.78-5.3s-6.46,6.87-3.39,8.38,6.7,1.59,6.38.64C358.23,171,362.91,176.15,363,173.07Z"/><circle class="cls-12" cx="405.77" cy="177.41" r="2.83"/><text class="cls-5" transform="translate(137.96 74.42)">PCR with<tspan x="-47.14" y="19.2">tailed primers at</tspan><tspan x="4.43" y="38.4">low conc</tspan></text><line class="cls-14" x1="347.55" y1="80.6" x2="378.17" y2="80.6"/><circle class="cls-12" cx="347.55" cy="80.6" r="2.83"/><line class="cls-14" x1="347.55" y1="93.59" x2="378.16" y2="93.59"/><circle class="cls-12" cx="347.55" cy="93.59" r="2.83"/><text class="cls-18" transform="translate(382.66 84.12)">F</text><text class="cls-18" transform="translate(382.66 97.12)">R</text><path class="cls-9" d="M325.26,92.34A11.72,11.72,0,0,1,337,80.62"/><line class="cls-7" x1="325.26" y1="70.12" x2="325.26" y2="100.8"/><path class="cls-8" d="M325.26,106.84a30.22,30.22,0,0,0-4.76-8.55l4.76,1.72L330,98.29A30.19,30.19,0,0,0,325.26,106.84Z"/><line class="cls-13" x1="280.18" y1="80.59" x2="310.8" y2="80.59"/><line class="cls-13" x1="280.18" y1="93.59" x2="310.8" y2="93.59"/><line class="cls-14" x1="249.57" y1="80.59" x2="280.18" y2="80.59"/><line class="cls-14" x1="249.57" y1="93.6" x2="280.18" y2="93.6"/><line class="cls-20" x1="259.87" y1="134.64" x2="390.5" y2="134.64"/><line class="cls-13" x1="259.86" y1="134.64" x2="229.25" y2="134.64"/><line class="cls-13" x1="421.12" y1="134.64" x2="390.5" y2="134.64"/><line class="cls-14" x1="451.89" y1="134.64" x2="421.12" y2="134.64"/><line class="cls-20" x1="259.87" y1="128.84" x2="390.5" y2="128.84"/><line class="cls-13" x1="229.25" y1="128.84" x2="259.87" y2="128.84"/><line class="cls-13" x1="390.5" y1="128.84" x2="421.12" y2="128.84"/><circle class="cls-12" cx="451.89" cy="134.64" r="2.83"/><line class="cls-14" x1="451.9" y1="128.84" x2="421.12" y2="128.84"/><line class="cls-14" x1="198.63" y1="128.84" x2="229.25" y2="128.84"/><circle class="cls-12" cx="198.63" cy="128.84" r="2.83"/><line class="cls-14" x1="198.63" y1="134.64" x2="229.25" y2="134.64"/><line class="cls-20" x1="259.95" y1="212.95" x2="390.58" y2="212.95"/><line class="cls-13" x1="390.58" y1="212.95" x2="421.2" y2="212.95"/><line class="cls-20" x1="259.95" y1="218.35" x2="390.58" y2="218.35"/><line class="cls-13" x1="421.2" y1="218.35" x2="390.58" y2="218.35"/><line class="cls-14" x1="451.81" y1="218.35" x2="421.2" y2="218.35"/><line class="cls-14" x1="451.81" y1="212.95" x2="421.2" y2="212.95"/><line class="cls-13" x1="259.94" y1="218.35" x2="229.33" y2="218.35"/><line class="cls-13" x1="229.33" y1="212.95" x2="259.94" y2="212.95"/><line class="cls-14" x1="198.71" y1="212.95" x2="229.33" y2="212.95"/><line class="cls-14" x1="198.71" y1="218.35" x2="229.33" y2="218.35"/><polyline class="cls-10" points="163.19 221.62 167.37 218.35 198.71 218.35"/><polyline class="cls-10" points="137.66 199.48 157.43 212.95 198.71 212.95"/><path class="cls-11" d="M155.91,208.61c.12-6.19-4.61-6.4-5.78-5.3s-6.46,6.87-3.39,8.38,6.7,1.59,6.38.64C151.17,206.54,155.85,211.7,155.91,208.61Z"/><polyline class="cls-10" points="487.34 209.68 483.16 212.95 451.81 212.95"/><polyline class="cls-10" points="512.87 231.82 493.1 218.35 451.81 218.35"/><path class="cls-11" d="M494.61,222.69c-.12,6.19,4.61,6.4,5.78,5.3s6.46-6.87,3.39-8.38-6.7-1.59-6.38-.64C499.35,224.76,494.67,219.6,494.61,222.69Z"/><text class="cls-5" transform="translate(29.79 91.47)">User-<tspan x="0" y="19.2">defined</tspan></text><path class="cls-20" d="M249,50c9.44-4.23,18.87-8.46,27.42-8.16s15.77,9.25,23.84,9.94,19.81-4.2,24.31-5.83c9.7-3.88,19-7.94,27.58-7.41s15.56,9.68,23.61,10.59,20.22-4,24.73-5.12"/><path class="cls-20" d="M250.06,53.62c9.44-4.23,18.87-8.46,27.42-8.16s15.77,9.25,23.84,9.94,20-4.39,24.33-5.88c9.73-3.88,17.93-7.48,26.46-6.95s15.55,9.68,23.61,10.59,20.22-4,24.73-5.12"/><path class="cls-13" d="M400.46,53"/><path class="cls-23" d="M300.23,51.75a24.15,24.15,0,0,0,5-.15"/><path class="cls-23" d="M347.1,42.71a28.92,28.92,0,0,1,5-.14"/><g class="cls-28"><rect class="cls-25" x="238.3" y="37.38" width="23.53" height="28.44"/></g><g class="cls-29"><rect class="cls-25" x="388.7" y="30.92" width="23.53" height="28.44"/></g><text class="cls-5" transform="translate(21.28 27.69)">a) </text></g></g></svg>